<?xml version="1.0" encoding="UTF-8" standalone="no"?>
<!-- Created with Inkscape (http://www.inkscape.org/) -->

<svg
   xmlns:dc="http://purl.org/dc/elements/1.1/"
   xmlns:cc="http://creativecommons.org/ns#"
   xmlns:rdf="http://www.w3.org/1999/02/22-rdf-syntax-ns#"
   xmlns:svg="http://www.w3.org/2000/svg"
   xmlns="http://www.w3.org/2000/svg"
   xmlns:sodipodi="http://sodipodi.sourceforge.net/DTD/sodipodi-0.dtd"
   xmlns:inkscape="http://www.inkscape.org/namespaces/inkscape"
   width="33.943233mm"
   height="33.542324mm"
   viewBox="0 0 33.943233 33.542324"
   version="1.1"
   id="svg8"
   inkscape:version="0.92.1 r15371"
   sodipodi:docname="logo_lobo.svg">
  <defs
     id="defs2">
    <inkscape:path-effect
       effect="bspline"
       id="path-effect92"
       is_visible="true"
       weight="33.333333"
       steps="2"
       helper_size="0"
       apply_no_weight="true"
       apply_with_weight="true"
       only_selected="false" />
    <inkscape:path-effect
       effect="bspline"
       id="path-effect56"
       is_visible="true"
       weight="33.333333"
       steps="2"
       helper_size="0"
       apply_no_weight="true"
       apply_with_weight="true"
       only_selected="false" />
    <inkscape:path-effect
       effect="bspline"
       id="path-effect52"
       is_visible="true"
       weight="33.333333"
       steps="2"
       helper_size="0"
       apply_no_weight="true"
       apply_with_weight="true"
       only_selected="false" />
    <inkscape:path-effect
       effect="bspline"
       id="path-effect47"
       is_visible="true"
       weight="33.333333"
       steps="2"
       helper_size="0"
       apply_no_weight="true"
       apply_with_weight="true"
       only_selected="false" />
    <inkscape:path-effect
       effect="bspline"
       id="path-effect42"
       is_visible="true"
       weight="33.333333"
       steps="2"
       helper_size="0"
       apply_no_weight="true"
       apply_with_weight="true"
       only_selected="false" />
    <inkscape:path-effect
       effect="bspline"
       id="path-effect27"
       is_visible="true"
       weight="33.333333"
       steps="2"
       helper_size="0"
       apply_no_weight="true"
       apply_with_weight="true"
       only_selected="false" />
    <inkscape:path-effect
       effect="bspline"
       id="path-effect92-6"
       is_visible="true"
       weight="33.333333"
       steps="2"
       helper_size="0"
       apply_no_weight="true"
       apply_with_weight="true"
       only_selected="false" />
  </defs>
  <sodipodi:namedview
     id="base"
     pagecolor="#ffffff"
     bordercolor="#666666"
     borderopacity="1.0"
     inkscape:pageopacity="0.0"
     inkscape:pageshadow="2"
     inkscape:zoom="7.9195959"
     inkscape:cx="65.194747"
     inkscape:cy="66.883598"
     inkscape:document-units="mm"
     inkscape:current-layer="layer8"
     showgrid="false"
     inkscape:window-width="1720"
     inkscape:window-height="1389"
     inkscape:window-x="1720"
     inkscape:window-y="27"
     inkscape:window-maximized="0" />
  <metadata
     id="metadata5">
    <rdf:RDF>
      <cc:Work
         rdf:about="">
        <dc:format>image/svg+xml</dc:format>
        <dc:type
           rdf:resource="http://purl.org/dc/dcmitype/StillImage" />
        <dc:title></dc:title>
      </cc:Work>
    </rdf:RDF>
  </metadata>
  <g
     inkscape:groupmode="layer"
     id="layer8"
     inkscape:label="fondo"
     transform="translate(1.2027159,0.02896881)">
    <ellipse
       style="fill:#000000;fill-opacity:1;stroke-width:0;stroke-miterlimit:4;stroke-dasharray:none"
       id="path6236"
       cx="15.768901"
       cy="16.742193"
       rx="16.971617"
       ry="16.771162" />
  </g>
  <g
     inkscape:label="cuerpo"
     inkscape:groupmode="layer"
     id="layer1"
     style="opacity:1"
     transform="translate(-88.203883,-133.68568)">
    <path
       style="fill:#ffffff;fill-opacity:1;stroke:#000000;stroke-width:0;stroke-linecap:butt;stroke-linejoin:miter;stroke-miterlimit:4;stroke-dasharray:none;stroke-opacity:1"
       d="m 98.806362,142.17292 c -0.300518,0.12244 -0.901874,0.36743 -1.561888,0.69047 -0.660015,0.32303 -1.377921,0.72372 -1.968254,1.11076 -0.590332,0.38703 -1.052287,0.75994 -1.497881,1.15539 -0.445593,0.39546 -0.874072,0.8128 -1.25003,1.20267 -0.375958,0.38987 -0.698707,0.75158 -0.927063,1.02169 -0.228357,0.27011 -0.361891,0.44816 -0.124694,0.38673 0.237198,-0.0614 0.843116,-0.36161 1.132552,-0.4675 0.289435,-0.10588 0.261589,-0.0168 0.02979,0.36026 -0.231798,0.37703 -0.664567,1.03728 -1.037726,1.68054 -0.373159,0.64326 -0.684829,1.2666 -0.954963,1.90153 -0.270135,0.63493 -0.498309,1.2805 -0.682109,1.88199 -0.1838,0.6015 -0.322933,1.15803 -0.398139,1.55067 -0.07521,0.39263 -0.08634,0.6208 0.01131,0.5398 0.09764,-0.081 0.30341,-0.47028 0.492703,-0.75416 0.189293,-0.28388 0.362042,-0.46221 0.459318,-0.49844 0.09728,-0.0362 0.119583,0.0697 0.15305,0.64976 0.03347,0.58005 0.07793,1.63044 0.264477,2.57161 0.18655,0.94117 0.514991,1.77062 0.94451,2.63222 0.42952,0.8616 0.95695,1.7499 1.476233,2.42801 0.519283,0.67811 1.034277,1.14833 1.295992,1.34307 0.261715,0.19474 0.272855,0.11676 0.308944,-0.0581 0.03609,-0.17488 0.09757,-0.44876 0.247802,-0.90499 0.150228,-0.45623 0.389928,-1.09728 0.687025,-1.71118 0.297096,-0.61389 0.655118,-1.20687 0.863919,-1.54929 0.208801,-0.34242 0.270071,-0.43711 0.148124,-0.45656 -0.121947,-0.0195 -0.429196,0.0364 -0.624241,0.0364 -0.195045,2e-5 -0.278487,-0.0556 -0.211502,-0.21735 0.06699,-0.16173 0.283986,-0.42881 0.509372,-0.69871 0.225386,-0.26991 0.459498,-0.54304 0.91019,-0.9659 0.450691,-0.42286 1.119557,-0.99697 1.715246,-1.45346 0.59569,-0.45649 1.119312,-0.79629 1.806732,-1.16086 0.68741,-0.36457 1.53984,-0.75457 1.98806,-0.9662 0.44823,-0.21163 0.4928,-0.24506 0.41817,-0.31139 -0.0746,-0.0663 -0.27082,-0.16723 -0.52532,-0.33857 -0.2545,-0.17134 -0.57521,-0.4189 -0.86202,-0.72243 -0.28681,-0.30352 -0.54292,-0.66541 -0.76007,-1.07746 -0.21715,-0.41205 -0.39535,-0.87427 -0.48721,-1.15827 -0.0918,-0.28401 -0.0974,-0.38985 -0.29146,-0.38636 -0.19404,0.003 -0.568455,0.1136 -0.79958,0.17488 -0.231125,0.0613 -0.31457,0.0724 -0.336842,0.0359 -0.02227,-0.0365 0.01656,-0.1197 0.188667,-0.24736 0.172111,-0.12767 0.479525,-0.30094 0.877395,-0.479 0.39787,-0.17806 0.88837,-0.36199 1.35873,-0.5067 0.47035,-0.14472 0.92166,-0.25058 1.20282,-0.33413 0.28116,-0.0836 0.39259,-0.14484 0.20946,-0.21423 -0.18312,-0.0694 -0.66333,-0.14756 -0.91681,-0.2256 -0.25348,-0.078 -0.28131,-0.15601 -0.21724,-0.21997 0.0641,-0.064 0.22028,-0.11417 0.53438,-0.16142 0.3141,-0.0472 0.78835,-0.0919 1.35614,-0.15555 0.5678,-0.0637 1.24186,-0.14793 1.63162,-0.22037 0.38976,-0.0724 0.50116,-0.13371 0.65672,-0.33931 0.15555,-0.20559 0.35657,-0.55738 0.55692,-0.93583 0.20035,-0.37845 0.40098,-0.78528 0.62365,-1.14429 0.22267,-0.35902 0.46785,-0.67107 0.70719,-0.94379 0.23934,-0.27271 0.47342,-0.50679 0.64877,-0.65426 0.17534,-0.14747 0.29242,-0.20879 0.54242,-0.21155 0.25,-0.003 0.63524,0.0531 1.01652,0.12822 0.38128,0.0752 0.76014,0.16986 1.12477,0.25893 0.36462,0.0891 0.7156,0.17263 1.02166,0.39521 0.30606,0.22258 0.5679,0.5847 0.8742,0.91885 0.3063,0.33414 0.65704,0.64034 1.11087,0.92711 0.45384,0.28677 1.01068,0.55405 1.65377,0.75448 0.64309,0.20043 1.37266,0.33409 1.85711,0.37581 0.48444,0.0417 0.72393,-0.008 0.83792,-0.0808 0.11398,-0.0724 0.10284,-0.16718 -0.0609,-0.21439 -0.16373,-0.0472 -0.47075,-0.0472 -0.86637,-0.17537 -0.39563,-0.12815 -0.87408,-0.38407 -1.40316,-0.80733 -0.52907,-0.42326 -1.10804,-1.01336 -1.4338,-1.40877 -0.32577,-0.39541 -0.39815,-0.59586 -0.52893,-0.90751 -0.13078,-0.31164 -0.32024,-0.73514 -0.65692,-1.01065 -0.33668,-0.27552 -0.82125,-0.40363 -1.64,-0.67932 -0.81874,-0.2757 -1.97091,-0.69872 -2.57794,-1.00508 -0.60703,-0.30637 -0.66826,-0.49566 -0.69052,-0.89636 -0.0222,-0.4007 -0.006,-1.01371 -0.0807,-1.73178 -0.0752,-0.71807 -0.24228,-1.54252 -0.36198,-2.10764 -0.11971,-0.56512 -0.19212,-0.87144 -0.25036,-1.01619 -0.0582,-0.14476 -0.10284,-0.12804 -0.1673,0.0344 -0.0645,0.16248 -0.14739,0.46653 -0.22818,0.78409 -0.0808,0.31755 -0.15865,0.64572 -0.28396,0.96046 -0.12531,0.31474 -0.29776,0.61514 -0.41744,0.79615 -0.11969,0.18101 -0.18647,0.24222 -0.26756,0.0352 -0.0811,-0.20697 -0.17537,-0.67831 -0.34514,-1.1598 -0.16978,-0.48148 -0.41489,-0.97169 -0.64869,-1.31126 -0.23379,-0.33957 -0.45656,-0.52893 -0.59572,-0.63748 -0.13915,-0.10855 -0.19484,-0.13639 -0.3649,0.0922 -0.17007,0.22857 -0.4535,0.71207 -0.84619,1.25517 -0.39269,0.5431 -0.89349,1.14407 -1.53402,1.96004 -0.64052,0.81597 -1.41969,1.84558 -2.02112,2.68924 -0.601429,0.84366 -1.024485,1.50051 -1.236172,1.82918 -0.211687,0.32867 -0.211708,0.32867 -0.512226,0.4511 z"
       id="path25"
       inkscape:connector-curvature="0"
       inkscape:path-effect="#path-effect27"
       inkscape:original-d="m 99.10688,142.05049 c -0.601091,0.24473 -1.202446,0.48973 -1.804069,0.73499 -0.718402,0.40085 -1.436309,0.80154 -2.154859,1.20271 -0.462092,0.37296 -0.924044,0.74587 -1.386462,1.1192 -0.428749,0.4176 -0.857226,0.83495 -1.286235,1.25282 -0.322887,0.36189 -0.645636,0.72359 -0.968851,1.08578 -0.133474,0.17805 -0.267004,0.3561 -0.400905,0.53454 0.608198,-0.30144 1.214115,-0.60162 1.820773,-0.90203 -0.02756,0.0888 -0.05541,0.17791 -0.08352,0.26727 -0.435592,0.66469 -0.86836,1.32494 -1.302938,1.98781 -0.311695,0.62366 -0.623366,1.247 -0.935445,1.87089 -0.228142,0.64597 -0.456319,1.29154 -0.684877,1.93771 -0.139006,0.55682 -0.27814,1.11335 -0.41761,1.67043 -0.01087,0.22815 -0.02201,0.45632 -0.03341,0.68488 0.206533,-0.39051 0.412303,-0.7798 0.618058,-1.16931 0.172736,-0.1783 0.345488,-0.35662 0.517835,-0.53454 0.02252,0.10537 0.04481,0.21133 0.06682,0.31739 0.04489,1.05409 0.08935,2.10448 0.133636,3.15712 0.328861,0.82958 0.657301,1.65903 0.985557,2.48894 0.534892,0.89079 1.058206,1.78154 1.586912,2.6727 0.512575,0.46193 1.024798,0.93518 1.536798,1.40317 0.0114,-0.0782 0.02254,-0.15618 0.03341,-0.23387 0.06128,-0.27206 0.122764,-0.54594 0.183748,-0.81851 0.239424,-0.63987 0.479123,-1.28093 0.718288,-1.921 0.35088,-0.59019 0.712983,-1.1807 1.069078,-1.77066 0.06148,-0.0949 0.122761,-0.18958 0.183748,-0.28397 -0.304988,0.0552 -0.61223,0.1111 -0.918739,0.16704 -0.08334,-0.056 -0.16678,-0.11163 -0.250566,-0.16704 0.21758,-0.26773 0.434578,-0.53481 0.65147,-0.80181 0.233874,-0.27281 0.467985,-0.54594 0.701583,-0.81851 0.667745,-0.57319 1.336611,-1.1473 2.00452,-1.72055 0.523446,-0.33978 1.047072,-0.67957 1.570212,-1.01897 0.85168,-0.3898 1.7041,-0.7798 2.55576,-1.1693 0.0448,-0.0337 0.0894,-0.0671 0.13364,-0.10023 -0.19333,-0.0998 -0.38951,-0.20071 -0.58466,-0.30068 -0.31171,-0.24538 -0.6345,-0.49025 -0.95214,-0.73499 -0.2559,-0.36223 -0.51201,-0.72412 -0.7684,-1.08578 -0.17789,-0.46235 -0.3561,-0.92457 -0.53454,-1.38646 -0.005,-0.10603 -0.0109,-0.21185 -0.0167,-0.31738 -0.38302,0.11083 -0.756996,0.22246 -1.135892,0.33409 -0.08333,0.0109 -0.166778,0.022 -0.250564,0.0334 0.03938,-0.0841 0.07822,-0.1673 0.11693,-0.25056 0.305343,-0.17222 0.612756,-0.34549 0.918736,-0.51784 0.48976,-0.18382 0.98026,-0.36776 1.46999,-0.55124 0.45098,-0.10599 0.90229,-0.21185 1.35305,-0.31738 0.11155,-0.0615 0.22299,-0.12276 0.33408,-0.18375 -0.47724,-0.078 -0.95745,-0.15617 -1.43657,-0.23386 -0.0276,-0.0782 -0.0554,-0.15617 -0.0835,-0.23386 0.15587,-0.0503 0.31208,-0.10049 0.46772,-0.15034 0.47259,-0.0447 0.94684,-0.0893 1.41987,-0.13364 0.66247,-0.0837 1.33661,-0.1673 2.00452,-0.25056 0.11158,-0.0615 0.22299,-0.12276 0.33409,-0.18375 0.20015,-0.35006 0.40117,-0.70185 0.60135,-1.05237 0.20054,-0.40638 0.40117,-0.81321 0.60136,-1.21942 0.24507,-0.31184 0.49026,-0.62389 0.73499,-0.93544 0.23391,-0.23391 0.46799,-0.46799 0.70158,-0.70159 0.11707,-0.0614 0.23413,-0.12276 0.3508,-0.18374 0.38342,0.0553 0.76866,0.1111 1.15259,0.16704 0.37868,0.0943 0.75753,0.18905 1.1359,0.28397 0.35088,0.0832 0.70185,0.16678 1.05238,0.25057 0.26182,0.36147 0.52366,0.72359 0.7851,1.08578 0.3511,0.30603 0.70185,0.61223 1.05237,0.91874 0.55705,0.26699 1.11389,0.53428 1.67044,0.80181 0.72954,0.13334 1.45911,0.267 2.18827,0.4009 0.23962,-0.0504 0.47912,-0.10049 0.71828,-0.15034 -0.0108,-0.0948 -0.022,-0.18957 -0.0334,-0.28397 -0.31635,-2.6e-4 -0.62337,-2.6e-4 -0.93545,0 -0.479,-0.25661 -0.95745,-0.51253 -1.43657,-0.7684 -0.57894,-0.5906 -1.1579,-1.1807 -1.73726,-1.77066 -0.0721,-0.20072 -0.1445,-0.40117 -0.21715,-0.60136 -0.18891,-0.42312 -0.37837,-0.84662 -0.56795,-1.26953 -0.48402,-0.12829 -0.96859,-0.2564 -1.45328,-0.3842 -1.15276,-0.4236 -2.30493,-0.84661 -3.4578,-1.26953 -0.061,-0.1896 -0.12223,-0.37889 -0.18374,-0.56795 0.017,-0.61223 0.0337,-1.22524 0.0501,-1.83747 -0.1667,-0.82398 -0.33382,-1.64843 -0.50113,-2.47225 -0.0721,-0.30643 -0.14451,-0.61275 -0.21716,-0.91874 -0.0442,0.0164 -0.0888,0.0331 -0.13363,0.0501 -0.0839,0.30817 -0.16678,0.61223 -0.25057,0.91874 -0.0778,0.32859 -0.15564,0.65677 -0.23386,0.98555 -0.17251,0.3007 -0.34496,0.6011 -0.51783,0.90204 -0.0666,0.061 -0.13337,0.12223 -0.20046,0.18375 -0.0948,-0.47551 -0.18905,-0.94685 -0.28397,-1.41987 -0.24463,-0.49005 -0.48973,-0.98026 -0.73499,-1.46999 -0.22241,-0.18954 -0.44518,-0.37889 -0.66817,-0.56794 -0.0554,-0.0281 -0.1111,-0.0559 -0.16705,-0.0835 -0.28425,0.48508 -0.56768,0.96858 -0.85192,1.45327 -0.50119,0.60148 -1.00199,1.20245 -1.50339,1.80407 -0.77964,1.03033 -1.55881,2.05994 -2.33861,3.09031 -0.423032,0.65696 -0.846087,1.31381 -1.269529,1.97111 z" />
  </g>
  <g
     style="opacity:1"
     id="g4698"
     inkscape:groupmode="layer"
     inkscape:label="blanco oreja"
     transform="translate(-88.203883,-133.68568)">
    <path
       inkscape:original-d="m 104.61932,137.72406 c -0.28928,0.41178 -0.57883,0.82382 -0.86863,1.23613 -0.27835,0.58481 -0.55655,1.16903 -0.83522,1.75395 -0.11673,0.35629 -0.2336,0.71245 -0.35079,1.06908 0.0281,0.0387 0.056,0.0777 0.0835,0.11693 0.20655,-0.11177 0.41231,-0.22299 0.61806,-0.33409 0.23933,-0.21709 0.47913,-0.43457 0.71829,-0.65147 0.19492,-0.30615 0.39003,-0.61275 0.58465,-0.91873 0.0781,-0.5009 0.15617,-1.00253 0.23386,-1.5034 -0.061,-0.25624 -0.12223,-0.51253 -0.18374,-0.7684 z"
       inkscape:path-effect="#path-effect42"
       inkscape:connector-curvature="0"
       id="path4696"
       d="m 104.47465,137.92993 c -0.14466,0.20587 -0.43421,0.61792 -0.71831,1.11647 -0.28411,0.49855 -0.56231,1.08277 -0.76003,1.55337 -0.19773,0.47061 -0.31459,0.82677 -0.35922,1.02457 -0.0446,0.1978 -0.0168,0.23682 0.10047,0.20048 0.11722,-0.0363 0.32298,-0.14757 0.5455,-0.3117 0.22252,-0.16414 0.46232,-0.38162 0.67932,-0.64317 0.217,-0.26155 0.41211,-0.56815 0.54842,-0.97159 0.1363,-0.40343 0.21433,-0.90506 0.22266,-1.28357 0.008,-0.37851 -0.053,-0.63479 -0.0836,-0.76276 -0.0306,-0.12797 -0.0306,-0.12797 -0.17525,0.0779 z"
       style="fill:#000000;fill-opacity:1;stroke:#000000;stroke-width:0.2;stroke-linecap:butt;stroke-linejoin:miter;stroke-miterlimit:4;stroke-dasharray:none;stroke-opacity:1" />
  </g>
  <g
     inkscape:groupmode="layer"
     id="layer3"
     inkscape:label="ojo"
     style="opacity:1"
     transform="translate(-88.203883,-133.68568)">
    <path
       style="fill:#ffffff;fill-opacity:1;stroke:#000000;stroke-width:0;stroke-linecap:butt;stroke-linejoin:miter;stroke-miterlimit:4;stroke-dasharray:none;stroke-opacity:1"
       d="m 108.88449,144.57841 c 0.1392,0.13921 0.41761,0.41761 0.73504,0.65428 0.31743,0.23668 0.67379,0.43156 1.04688,0.53733 0.37309,0.10577 0.76296,0.12247 1.14707,0.0863 0.38411,-0.0362 0.76298,-0.12535 0.9717,-0.20618 0.20872,-0.0808 0.24772,-0.15326 0.17723,-0.29325 -0.0705,-0.13998 -0.24707,-0.34415 -0.51705,-0.53621 -0.26997,-0.19205 -0.63194,-0.37025 -1.01059,-0.5039 -0.37864,-0.13365 -0.77386,-0.22272 -1.13302,-0.22554 -0.35916,-0.003 -0.68195,0.0807 -0.93538,0.15305 -0.25343,0.0724 -0.43702,0.13359 -0.52905,0.16427 -0.092,0.0307 -0.092,0.0307 0.0472,0.16989 z"
       id="path45"
       inkscape:connector-curvature="0"
       inkscape:path-effect="#path-effect47"
       inkscape:original-d="m 108.74529,144.43921 c 0.27867,0.27814 0.55707,0.55655 0.83521,0.83522 0.35663,0.19462 0.71299,0.3895 1.06908,0.58465 0.38993,0.0164 0.7798,0.0331 1.16931,0.0501 0.37865,-0.0893 0.75753,-0.17844 1.13589,-0.26727 0.0392,-0.0726 0.0782,-0.14503 0.11693,-0.21715 -0.18268,-0.20539 -0.35609,-0.41231 -0.53453,-0.61806 -0.36163,-0.17843 -0.7236,-0.35663 -1.08579,-0.53454 -0.39519,-0.0894 -0.79041,-0.17845 -1.18601,-0.26727 -0.32284,0.0833 -0.64563,0.16678 -0.96885,0.25056 -0.18366,0.061 -0.36723,0.12224 -0.55124,0.18375 z" />
  </g>
  <g
     inkscape:groupmode="layer"
     id="layer2"
     inkscape:label="boca"
     style="opacity:1"
     transform="translate(-88.203883,-133.68568)">
    <path
       style="opacity:1;fill:#ffffff;fill-opacity:1;stroke:#000000;stroke-width:0;stroke-linecap:butt;stroke-linejoin:miter;stroke-miterlimit:4;stroke-dasharray:none;stroke-opacity:1"
       d="m 121.93632,148.34794 c -0.006,-0.13376 -0.0167,-0.40103 -0.0751,-0.61245 -0.0584,-0.21142 -0.16433,-0.36747 -0.28122,-0.51219 -0.11689,-0.14472 -0.245,-0.2784 -0.37024,-0.38417 -0.12524,-0.10576 -0.24775,-0.18372 -0.3758,-0.2422 -0.12806,-0.0585 -0.26161,-0.0974 -0.38136,-0.11972 -0.11975,-0.0223 -0.22539,-0.0279 -0.2967,0.003 -0.0713,0.0312 -0.11253,0.10772 -0.10416,0.18598 0.008,0.0783 0.0638,0.16141 0.14183,0.25058 0.078,0.0892 0.17816,0.18374 0.26722,0.33956 0.0891,0.15582 0.16701,0.37299 0.14756,0.68208 -0.0195,0.30909 -0.13631,0.70972 -0.27275,1.04949 -0.13644,0.33976 -0.29222,0.61794 -0.55965,0.93277 -0.26744,0.31483 -0.64564,0.66522 -1.05503,0.92148 -0.4094,0.25627 -0.84897,0.41763 -1.3531,0.52905 -0.50413,0.11143 -1.07167,0.17263 -1.62863,0.20049 -0.55696,0.0279 -1.10236,0.0223 -1.754,0.0473 -0.65164,0.0251 -1.40854,0.0807 -2.11859,0.15867 -0.71006,0.078 -1.37242,0.17815 -2.11594,0.36193 -0.74352,0.18378 -1.56723,0.45093 -2.31794,0.75387 -0.75071,0.30295 -1.43198,0.64358 -2.19223,1.09471 -0.76026,0.45113 -1.60065,1.01324 -2.25222,1.51999 -0.65158,0.50675 -1.11356,0.9576 -1.35904,1.21751 -0.24549,0.25991 -0.27247,0.32469 -0.18841,0.34706 0.0841,0.0224 0.27803,2e-4 0.53115,-0.0471 0.25312,-0.0473 0.56541,-0.11979 0.80473,-0.15316 0.23931,-0.0334 0.40653,-0.0278 0.44005,0.003 0.0335,0.0305 -0.0669,0.0863 -0.23708,0.16718 -0.1702,0.0809 -0.40888,0.18638 -0.65965,0.3786 -0.25077,0.19222 -0.51212,0.47025 -0.79904,0.79895 -0.28692,0.32869 -0.59843,0.70696 -0.78226,0.9687 -0.18382,0.26175 -0.23946,0.40641 -0.25622,0.55418 -0.0168,0.14777 0.005,0.29777 0.0863,0.4539 0.0808,0.15612 0.21983,0.31735 0.48714,0.60136 0.2673,0.28401 0.66259,0.69044 1.08301,1.04682 0.42042,0.35638 0.86587,0.66262 1.31411,0.91597 0.44824,0.25334 0.89931,0.45382 1.35864,0.61249 0.45934,0.15867 0.92719,0.27564 1.49225,0.35078 0.56506,0.0752 1.22793,0.10857 1.89879,0.0919 0.67085,-0.0167 1.35041,-0.0836 1.90993,-0.18658 0.55951,-0.10301 0.99958,-0.24228 1.43931,-0.43711 0.43972,-0.19483 0.87991,-0.44557 1.20183,-0.64453 0.32192,-0.19895 0.51886,-0.34119 0.59119,-0.42733 0.0723,-0.0861 0.0166,-0.11402 -0.10045,-0.1224 -0.11702,-0.008 -0.29485,0.003 -0.52613,0.0445 -0.23128,0.0418 -0.51482,0.11406 -0.92999,0.11965 -0.41516,0.006 -0.96023,-0.0556 -1.39191,-0.18926 -0.43168,-0.13367 -0.74893,-0.33961 -1.04968,-0.60416 -0.30075,-0.26455 -0.58466,-0.58743 -0.80646,-0.95256 -0.22179,-0.36513 -0.38517,-0.78202 -0.46588,-1.2191 -0.0807,-0.43708 -0.0807,-0.8994 -0.003,-1.3364 0.078,-0.437 0.23396,-0.84929 0.47333,-1.23611 0.23937,-0.38683 0.56257,-0.74903 0.96054,-1.07182 0.39798,-0.3228 0.87163,-0.60699 1.46997,-0.87971 0.59833,-0.27271 1.32267,-0.53459 2.09088,-0.76003 0.76822,-0.22545 1.58152,-0.41485 2.33308,-0.58464 0.75156,-0.1698 1.44227,-0.3202 2.09639,-0.46494 0.65411,-0.14474 1.27245,-0.28401 1.78823,-0.48875 0.51578,-0.20474 0.9375,-0.48027 1.28536,-0.81426 0.34786,-0.33399 0.62647,-0.72962 0.84074,-1.10534 0.21428,-0.37572 0.36473,-0.73234 0.44262,-1.05793 0.0779,-0.32558 0.0835,-0.62094 0.0862,-0.76837 0.003,-0.14742 0.003,-0.14746 -0.003,-0.28122 z"
       id="path90-7"
       inkscape:connector-curvature="0"
       inkscape:path-effect="#path-effect92-6"
       inkscape:original-d="m 121.94189,148.4817 c -0.0109,-0.26753 -0.022,-0.5348 -0.0334,-0.80181 -0.10543,-0.15602 -0.21132,-0.31208 -0.31738,-0.46772 -0.12776,-0.13385 -0.25587,-0.26753 -0.3842,-0.4009 -0.12223,-0.0782 -0.24473,-0.15617 -0.3675,-0.23386 -0.13344,-0.0393 -0.267,-0.0782 -0.4009,-0.11693 -0.10567,-0.006 -0.21132,-0.0114 -0.31738,-0.0167 -0.0388,0.0667 -0.0777,0.14451 -0.11693,0.21716 0.0562,0.0836 0.11162,0.16677 0.16704,0.25056 0.10056,0.0945 0.20072,0.18905 0.30068,0.28397 0.0782,0.21688 0.15617,0.43405 0.23386,0.65148 -0.11675,0.40091 -0.2336,0.80154 -0.35079,1.20271 -0.15577,0.27836 -0.31155,0.55654 -0.46772,0.83521 -0.3788,0.35093 -0.757,0.70132 -1.1359,1.05238 -0.43993,0.16133 -0.8795,0.32269 -1.31964,0.48443 -0.5681,0.061 -1.13563,0.12223 -1.70385,0.18374 -0.54568,-0.006 -1.09108,-0.0114 -1.63702,-0.0167 -0.75736,0.0554 -1.51426,0.1111 -2.27179,0.16704 -0.66259,0.1 -1.32495,0.20019 -1.98782,0.30068 -0.82419,0.26713 -1.6479,0.53428 -2.47224,0.80181 -0.67931,0.33395 -1.35836,0.67904 -2.03793,1.01897 -0.84092,0.56237 -1.68131,1.12449 -2.52236,1.68713 -0.46206,0.45092 -0.92404,0.90177 -1.38646,1.35305 -0.0332,0.0666 -0.0554,0.13338 -0.0835,0.20046 0.19608,-0.0226 0.39003,-0.0448 0.58465,-0.0668 0.31161,-0.0725 0.6239,-0.14504 0.93544,-0.21716 0.16715,0.005 0.33436,0.0109 0.50113,0.0167 -0.0998,0.0553 -0.20018,0.1111 -0.30067,0.16704 -0.23992,0.10587 -0.4786,0.21133 -0.71829,0.31738 -0.26179,0.27852 -0.52314,0.55655 -0.78511,0.83522 -0.31185,0.37874 -0.62336,0.757 -0.93544,1.1359 -0.0555,0.14461 -0.1111,0.28928 -0.16704,0.43431 0.0226,0.15041 0.0448,0.30042 0.0668,0.45102 0.13967,0.16145 0.27866,0.32268 0.41761,0.48442 0.39565,0.40626 0.79093,0.81269 1.186,1.21942 0.44572,0.30599 0.89117,0.61223 1.33635,0.91874 0.45123,0.20016 0.9023,0.40064 1.35305,0.60136 0.46786,0.11663 0.93571,0.23359 1.40317,0.35079 0.6626,0.0331 1.32547,0.0665 1.98782,0.10023 0.67931,-0.0671 1.35888,-0.1339 2.03792,-0.20046 0.43996,-0.13941 0.88003,-0.27867 1.31965,-0.41761 0.43983,-0.25065 0.88002,-0.50139 1.31964,-0.75169 0.20614,-0.14493 0.40117,-0.28981 0.60136,-0.43431 -0.0553,-0.0281 -0.1111,-0.0559 -0.16704,-0.0835 -0.17826,0.0109 -0.3561,0.022 -0.53455,0.0334 -0.28415,0.0722 -0.56768,0.14451 -0.85192,0.21716 -0.54601,-0.0616 -1.09108,-0.12276 -1.63702,-0.18375 -0.31725,-0.20637 -0.6345,-0.41231 -0.95215,-0.61806 -0.28377,-0.32328 -0.56768,-0.64617 -0.85192,-0.96885 -0.1612,-0.40672 -0.32269,-0.82435 -0.48443,-1.23612 2.7e-4,-0.46226 2.7e-4,-0.92458 0,-1.38646 0.15608,-0.41207 0.31208,-0.82435 0.46772,-1.23613 0.32297,-0.36191 0.64617,-0.72411 0.96886,-1.08578 0.47319,-0.28402 0.94684,-0.56821 1.41987,-0.85192 0.72364,-0.26179 1.44797,-0.52367 2.17156,-0.7851 0.81285,-0.1895 1.62615,-0.3789 2.43883,-0.56795 0.69045,-0.15055 1.38116,-0.30094 2.07134,-0.45102 0.61805,-0.1394 1.23639,-0.27867 1.85419,-0.41761 0.4121,-0.27296 0.83548,-0.54594 1.25282,-0.81851 0.27847,-0.39531 0.55708,-0.79094 0.83522,-1.18601 0.15049,-0.35635 0.30094,-0.71298 0.45102,-1.06908 0.006,-0.29511 0.0114,-0.59048 0.0167,-0.88533 z" />
  </g>
</svg>
